<svg xmlns="http://www.w3.org/2000/svg" width="293.503" height="51.078" xmlns:v="https://vecta.io/nano"><path d="M116.577 50.447l-5.3-7.13c-.007-.008-.018-.012-.028-.01a23.49 23.49 0 0 1-4.587.469 21.63 21.63 0 0 1-10.717-2.716 20.3 20.3 0 0 1-7.735-7.587 22.32 22.32 0 0 1 0-21.877c1.851-3.17 4.523-5.781 7.735-7.557a22.5 22.5 0 0 1 21.433 0 19.95 19.95 0 0 1 7.676 7.557 21.4 21.4 0 0 1 2.805 10.924c.04 3.361-.698 6.686-2.156 9.714a20.03 20.03 0 0 1-5.97 7.275c-.01.011-.01.027 0 .038l1.255 1.507a5.73 5.73 0 0 1-4.4 9.394zm-17.92-19.161c2.056 2.214 4.981 3.413 8 3.277a10.17 10.17 0 0 0 7.941-3.307 14.34 14.34 0 0 0 0-17.507c-2.037-2.206-4.941-3.405-7.941-3.277-3.013-.136-5.935 1.05-8 3.248a14.43 14.43 0 0 0-.001 17.566zm33.36-13.372c1.156-2.417 2.966-4.461 5.226-5.9a13.65 13.65 0 0 1 7.381-2.067 12.68 12.68 0 0 1 6.111 1.417c1.627.843 3.005 2.098 3.995 3.64.008.012.025.015.037.007s.012-.013.012-.022v-4.54c0-.007.003-.015.008-.02s.012-.008.02-.008h2.035c4.437 0 8.034 3.597 8.034 8.034v24.886c0 .008-.003.015-.008.02s-.013.009-.02.009h-10.041c-.007 0-.015-.003-.02-.008s-.008-.012-.008-.02v-4.55c0-.007-.003-.014-.008-.019s-.012-.008-.019-.008-.017.005-.022.012c-1.02 1.537-2.413 2.79-4.049 3.643a12.68 12.68 0 0 1-6.111 1.417 13.4 13.4 0 0 1-7.322-2.1 14.47 14.47 0 0 1-5.226-5.961c-2.558-5.679-2.558-12.183 0-17.862zm20.666 3.012a6.78 6.78 0 0 0-4.5-2.162c-1.759-.14-3.508.367-4.919 1.426a7.81 7.81 0 0 0-2.895 6.635 8.36 8.36 0 0 0 2.1 5.993 7.03 7.03 0 0 0 9.939.3c.095-.089.186-.181.276-.275a9.53 9.53 0 0 0 0-11.927zm45.347-7.116q3.454 3.751 3.455 10.3v19.22c0 .007-.003.015-.008.02s-.012.008-.02.008h-9.981c-.007 0-.015-.003-.02-.008s-.008-.012-.008-.02V25.468c.116-1.869-.497-3.711-1.711-5.137a6.71 6.71 0 0 0-9.211 0 7.23 7.23 0 0 0-1.713 5.137V43.33c0 .007-.003.015-.008.02s-.012.008-.02.008h-10.041c-.008 0-.015-.003-.02-.008s-.009-.013-.009-.02V10.443c0-.008.003-.015.009-.02s.013-.008.02-.008h5.784c2.367 0 4.285 1.918 4.285 4.285-.001.012.007.024.019.028s.025-.001.031-.012c1.055-1.454 2.459-2.619 4.084-3.385a13.14 13.14 0 0 1 5.848-1.27 11.96 11.96 0 0 1 9.235 3.749zm26.16 21.019v8.505c0 .007-.003.015-.008.02s-.012.008-.02.008h-5.112q-5.492 0-8.562-2.687-3.07-2.687-3.07-8.772v-13.08c0-.007-.003-.015-.008-.02s-.012-.008-.02-.008h-3.959c-.007 0-.015-.003-.02-.008s-.008-.012-.008-.02v-8.324c0-.007.003-.015.008-.02s.012-.008.02-.008h3.959c.007 0 .014-.002.019-.007s.008-.012.009-.019V2.413c0-.007.003-.015.008-.02s.012-.008.02-.008h2.067a8 8 0 0 1 8 8c0 .007.003.015.008.02s.012.008.02.008c1.746 0 3.421.694 4.656 1.929s1.929 2.91 1.929 4.656v1.771c0 .007-.002.014-.007.019s-.012.008-.019.009h-6.559c-.007 0-.015.003-.02.008s-.008.012-.008.02v13.2a2.76 2.76 0 0 0 .708 2.126c.681.498 1.522.729 2.362.65h3.573c.015-.002.029.009.031.024z" fill="#fff"/><path d="M256.856 29.31h-20.07c-.008 0-.015.004-.02.009s-.008.013-.008.021c.037 1.75.744 3.419 1.975 4.663a6.04 6.04 0 0 0 4.282 1.624c2.244.162 4.347-1.109 5.246-3.172.005-.01.015-.016.026-.016h10.692c.008 0 .015.003.021.009s.008.013.008.021v.006c-.545 2.134-1.561 4.119-2.973 5.809a14.93 14.93 0 0 1-5.4 4.075 17.35 17.35 0 0 1-7.263 1.477 17.66 17.66 0 0 1-8.62-2.067c-2.496-1.355-4.545-3.404-5.9-5.9a18.22 18.22 0 0 1-2.126-8.976 18.42 18.42 0 0 1 2.1-8.975 14.51 14.51 0 0 1 5.875-5.9 19.14 19.14 0 0 1 17.182-.058 14.42 14.42 0 0 1 5.817 5.728 17.4 17.4 0 0 1 2.1 8.68v.028c-.012 1.616-1.328 2.918-2.944 2.914zm-7.436-5.61c.016-.001.028-.013.028-.029.059-1.564-.592-3.071-1.771-4.1a6.53 6.53 0 0 0-4.428-1.535 6.4 6.4 0 0 0-4.281 1.477c-1.206 1.074-1.972 2.556-2.151 4.161-.001.008.001.015.006.021s.012.01.02.011h12.577zm27.816 10.214l7.145-23.5h5.219a3.9 3.9 0 0 1 3.679 5.208l-9.843 27.739h-12.458l-11.7-32.952h5.907a6.61 6.61 0 0 1 6.323 4.686z" fill="#12ce9f"/><g fill="#fff"><g stroke="#fff"><g stroke-miterlimit="10"><path d="M52.59 44.363c-.452 0-.902-.061-1.337-.183l-20.8-5.8a3.83 3.83 0 0 0-1.034-.142H17.172c-2.211-.003-4.405-.386-6.486-1.133l-5.961-2.126c-2.6-.929-4.336-3.852-4.211-7.107l.249-6.508a7.9 7.9 0 0 1 1.507-4.409l7.252-9.646c1.666-2.308 4.115-3.93 6.89-4.564l8.058-1.669a27.12 27.12 0 0 1 11.1.006l8.485 1.769c2.398.532 4.559 1.826 6.162 3.687l9.6 10.787c.868.998 1.454 2.209 1.7 3.509l1.719 8.586c.481 2.279-.047 4.655-1.448 6.516l-4.892 6.21c-1.016 1.364-2.606 2.182-4.306 2.217zm-35.944-40.5a10.57 10.57 0 0 0-6.2 4.129l-7.252 9.646C2.4 18.735 1.955 20.046 1.917 21.4l-.249 6.508c-.106 2.758 1.312 5.218 3.448 5.979l5.961 2.125a18.12 18.12 0 0 0 6.095 1.068h12.25c.454 0 .906.062 1.343.184l20.8 5.8c1.672.427 3.434-.223 4.427-1.634l4.9-6.213a6.9 6.9 0 0 0 1.224-5.576l-1.719-8.587c-.206-1.099-.701-2.124-1.433-2.969l-9.6-10.787a10.25 10.25 0 0 0-5.539-3.326L35.34 2.203a25.99 25.99 0 0 0-10.634-.007z"/><path d="M42.1 50.576a6.8 6.8 0 0 1-5.342-2.787l-7.677-9.856.907-.708 7.676 9.857a5.34 5.34 0 0 0 7.348 1.432l7.817-5.2.637.955-7.817 5.2c-1.047.713-2.282 1.098-3.549 1.107zm-21.207-13.05l-.816-.1 4.1-35.839a.41.41 0 0 1 .668-.272l38.242 31.079-.519.638-37.66-30.6z"/><path d="M56.114 42.62l-.816-.1 3.109-24.189-12.314 1.17a.41.41 0 0 1-.443-.485l2.514-13.357.808.152-2.413 12.821 12.279-1.164a.41.41 0 0 1 .449.369.42.42 0 0 1 0 .092z"/><path d="M20.854 37.654l-.739-.359L33.772 9.216c.053-.109.151-.189.268-.219l14.428-3.674.2.8-14.24 3.631z"/><path d="M34.986 21.82c-.078 0-.155-.022-.221-.064L10.943 6.64l.441-.694 23.673 15.025 10.518-2.593.2.8-10.689 2.635a.4.4 0 0 1-.1.007zm1.952 17.241l21.45-19.73.556.605-21.45 19.73z"/><path d="M2.19 32.59l8.584-26.424.781.254-8.583 26.424z"/><path d="M5.251 23.582l.547-.614 15.056 13.404-.546.614z"/></g><path stroke-miterlimit="9.997" d="M45.612 18.722l.817-.088 1.18 10.959-.817.088z"/><g stroke-miterlimit="10"><path d="M36.377 38.494l-1.791-16.957-10.41-19.246.723-.391L35.35 21.217c.026.047.042.099.048.153l1.8 17.037z"/><path d="M36.841 38.284l8.453-19.076.751.333-8.453 19.076z"/><path d="M25.399 26.741l.606-.555 12.142 13.261-.606.555zm-19.29-4.088l16.75-9.161.394.72-16.75 9.162z"/></g></g><circle cx="46.06" cy="19.222" r="2.508"/><g stroke="#fff"><circle cx="35.022" cy="21.411" r="2.508"/><circle cx="22.783" cy="13.853" r="2.508"/><circle cx="25.911" cy="26.926" r="2.508"/><circle cx="6.075" cy="23.275" r="2.508"/></g><circle cx="34.463" cy="9.85" r="2.508"/><circle cx="57.956" cy="28.683" r="2.508" stroke="#fff"/></g><g fill="#12ce9f"><circle cx="34.464" cy="9.851" r="1.45"/><circle cx="35.022" cy="21.412" r="1.45"/><circle cx="22.784" cy="13.852" r="1.45"/><circle cx="25.911" cy="26.926" r="1.45"/><circle cx="6.075" cy="23.275" r="1.45"/><circle cx="46.06" cy="19.222" r="1.45"/><circle cx="57.957" cy="28.684" r="1.45"/></g><g fill="#fff" stroke="#fff"><path stroke-miterlimit="9.997" d="M46.833 29.83l.727-.382 7.224 13.747-.728.383z"/><circle cx="47.511" cy="29.654" r="2.508"/></g><circle cx="47.511" cy="29.655" r="1.45" fill="#12ce9f"/><path d="M42.152 50.407a.41.41 0 0 1-.373-.239L36.6 38.942l.746-.345 4.7 10.2 4.751-17.709.795.213-5.046 18.806a.41.41 0 0 1-.362.3z" fill="#fff" stroke="#fff" stroke-miterlimit="10"/></svg>