<svg xmlns="http://www.w3.org/2000/svg" width="102" height="116.929" xmlns:v="https://vecta.io/nano"><path d="M15.169 116.925l-2.576-3.463a12.06 12.06 0 0 1-2.241.223 10.5 10.5 0 0 1-5.2-1.319c-1.563-.865-2.861-2.139-3.756-3.685a10.84 10.84 0 0 1 0-10.624 9.9 9.9 0 0 1 3.756-3.67c3.247-1.759 7.162-1.759 10.409 0a9.69 9.69 0 0 1 3.728 3.67 10.39 10.39 0 0 1 1.362 5.3 10.58 10.58 0 0 1-1.047 4.717 9.73 9.73 0 0 1-2.9 3.533l.609.751a2.78 2.78 0 0 1-2.138 4.562zm-8.7-9.305a4.99 4.99 0 0 0 3.885 1.592 4.94 4.94 0 0 0 3.857-1.606c1.93-2.505 1.93-5.995 0-8.5a4.96 4.96 0 0 0-3.857-1.592 5.02 5.02 0 0 0-3.885 1.577 7.01 7.01 0 0 0 0 8.531zm16.199-6.491a6.95 6.95 0 0 1 2.538-2.867c1.075-.669 2.318-1.016 3.584-1a6.16 6.16 0 0 1 2.968.688c.79.409 1.459 1.019 1.94 1.768.02.004.024-.001.024-.007v-2.206l1.003-.014a3.9 3.9 0 0 1 3.9 3.9v12.086l-4.89.014-.014-2.221c-.015-.014-.021-.012-.024-.007a5.3 5.3 0 0 1-1.969 1.769 6.16 6.16 0 0 1-2.968.688c-1.259.012-2.494-.342-3.556-1.018a7.03 7.03 0 0 1-2.538-2.9 10.56 10.56 0 0 1 0-8.674zm10.036 1.463a3.29 3.29 0 0 0-2.184-1.05 3.51 3.51 0 0 0-2.389.693 3.79 3.79 0 0 0-1.406 3.224 4.06 4.06 0 0 0 1.018 2.911 3.42 3.42 0 0 0 2.477 1.075c.938.003 1.837-.381 2.484-1.061a4.63 4.63 0 0 0 0-5.792zm22.017-3.451a7.1 7.1 0 0 1 1.678 5v9.334l-4.858.014-.014-8.689a3.51 3.51 0 0 0-.832-2.495 3.26 3.26 0 0 0-4.473 0 3.51 3.51 0 0 0-.832 2.495v8.675l-4.89.014-.014-15.987 2.823-.014a2.08 2.08 0 0 1 2.081 2.081c.015.015.021.013.024.008a5.18 5.18 0 0 1 1.983-1.644 6.38 6.38 0 0 1 2.839-.617 5.81 5.81 0 0 1 4.485 1.825zm12.71 10.202v4.131l-2.495.014a6.1 6.1 0 0 1-4.158-1.3 5.39 5.39 0 0 1-1.491-4.259v-6.356l-1.939-.014-.014-4.058 1.937-.014.013-3.886 1.014-.014c2.146 0 3.886 1.74 3.886 3.886.863.013 1.677.35 2.277.95a3.2 3.2 0 0 1 .937 2.263v.86l-3.197.013-.014 6.424a1.34 1.34 0 0 0 .344 1.032 1.68 1.68 0 0 0 1.147.316h1.735c.015.004.018.008.018.012z" fill="#fff"/><path d="M83.295 106.664h-9.749c-.013.007-.014.011-.014.015a3.32 3.32 0 0 0 .959 2.264 2.93 2.93 0 0 0 2.079.789c1.09.079 2.111-.538 2.548-1.54l5.204-.008c.013.009.014.014.013.018a7.16 7.16 0 0 1-1.444 2.821 7.25 7.25 0 0 1-2.624 1.979c-1.11.49-2.313.735-3.527.717-1.458.028-2.899-.316-4.187-1-1.213-.658-2.209-1.654-2.868-2.867a8.86 8.86 0 0 1-1.032-4.359 8.95 8.95 0 0 1 1.018-4.359 7.04 7.04 0 0 1 2.853-2.867c2.621-1.328 5.715-1.339 8.345-.029a7 7 0 0 1 2.825 2.781 8.45 8.45 0 0 1 1.018 4.215v.014c-.005.78-.637 1.411-1.417 1.416zm-3.611-2.724a2.47 2.47 0 0 0-.846-2.007 3.17 3.17 0 0 0-2.15-.745 3.11 3.11 0 0 0-2.079.717 3.18 3.18 0 0 0-1.044 2.02c.006.014.01.016.014.016zm13.508 4.96l3.47-11.412h2.535a1.9 1.9 0 0 1 1.786 2.529l-4.78 13.471h-6.05l-5.677-16h2.869a3.21 3.21 0 0 1 3.07 2.276z" fill="#12ce9f"/><g fill="#fff"><path d="M85.008 68.905a7.79 7.79 0 0 1-2.1-.288L50.23 59.509c-.529-.148-1.075-.223-1.624-.224H29.363a30.27 30.27 0 0 1-10.19-1.779l-9.365-3.34C5.716 52.707 2.996 48.115 3.192 43l.392-10.225a12.4 12.4 0 0 1 2.368-6.926L17.345 10.69A18.41 18.41 0 0 1 28.17 3.519L40.827.896C46.58-.303 52.518-.299 58.269.907l13.33 2.779a17.89 17.89 0 0 1 9.68 5.792l15.086 16.947c1.364 1.568 2.286 3.471 2.673 5.513l2.7 13.491a12.67 12.67 0 0 1-2.275 10.236l-7.695 9.761a8.66 8.66 0 0 1-6.76 3.479zM28.537 5.289a16.61 16.61 0 0 0-9.746 6.487L7.399 26.936a10.58 10.58 0 0 0-2.007 5.91L5 43.071c-.166 4.334 2.061 8.2 5.417 9.394l9.365 3.339a28.46 28.46 0 0 0 9.582 1.674H48.61a7.86 7.86 0 0 1 2.11.29l32.678 9.108c2.626.672 5.395-.35 6.954-2.568l7.695-9.761a10.84 10.84 0 0 0 1.922-8.762l-2.7-13.491a9.92 9.92 0 0 0-2.25-4.666L79.927 10.681a16.1 16.1 0 0 0-8.7-5.224l-13.33-2.779a40.82 40.82 0 0 0-16.706-.01z"/><path d="M68.529 78.669c-3.327-.071-6.431-1.69-8.393-4.378L48.075 58.804l1.427-1.111L61.563 73.18c3 3.85 7.746 4.774 11.544 2.246l12.282-8.175 1 1.505-12.282 8.175a10.03 10.03 0 0 1-5.578 1.738zM35.21 58.163l-1.283-.147 6.444-56.308c.027-.234.179-.436.398-.525s.468-.052.651.097l60.081 48.828-.814 1L41.521 3.023z"/><path d="M90.545 66.167l-1.281-.165 4.884-38-19.346 1.838c-.203.021-.403-.056-.541-.206s-.197-.356-.159-.556l3.949-20.987 1.269.239-3.787 20.139 19.3-1.833c.195-.018.388.054.524.195s.201.336.176.53z"/><path d="M35.149 58.371l-1.161-.565 21.453-44.11c.083-.171.237-.297.421-.344l22.669-5.773.319 1.252-22.378 5.7z"/><path d="M57.349 33.492c-.122 0-.242-.035-.346-.1L19.577 9.639l.692-1.091 37.193 23.606 16.524-4.073.309 1.254-16.792 4.139a.64.64 0 0 1-.154.018zm3.069 27.084L94.1 29.559l.875.95-33.682 31.017z"/><path d="M5.827 50.41L19.313 8.894l1.229.4L7.056 50.809z"/><path d="M10.635 36.257l.86-.965 23.647 21.06-.86.965zm63.41-7.637l1.284-.138 1.854 17.217-1.285.138zM59.538 59.684l-2.814-26.637L40.363 2.805l1.136-.615 16.422 30.35c.04.074.065.155.074.239l2.827 26.769z"/><path d="M60.265 59.355l13.288-29.977 1.181.524-13.288 29.977z"/><path d="M42.29 41.219l.953-.872 19.075 20.834-.953.873zm-30.306-6.421l26.314-14.393.62 1.134-26.314 14.393z"/><circle cx="74.75" cy="29.407" r="3.941"/><circle cx="57.409" cy="32.848" r="3.941"/><circle cx="38.181" cy="20.971" r="3.941"/><circle cx="43.095" cy="41.512" r="3.941"/><circle cx="11.93" cy="35.775" r="3.941"/><circle cx="56.531" cy="14.683" r="3.941"/><circle cx="93.441" cy="44.272" r="3.941"/></g><g fill="#12ce9f"><circle cx="56.531" cy="14.683" r="2.278"/><circle cx="57.409" cy="32.847" r="2.278"/><circle cx="38.18" cy="20.97" r="2.278"/><circle cx="43.094" cy="41.511" r="2.278"/><circle cx="11.93" cy="35.774" r="2.278"/><circle cx="74.75" cy="29.406" r="2.278"/><circle cx="93.441" cy="44.271" r="2.278"/></g><g fill="#fff"><path d="M75.965 46.074l1.143-.6L88.46 67.078l-1.143.6z"/><circle cx="77.029" cy="45.798" r="3.941"/></g><circle cx="77.028" cy="45.797" r="2.278" fill="#12ce9f"/><path d="M68.609 78.404c-.252 0-.48-.147-.586-.375l-8.138-17.638 1.173-.541 7.391 16.017 7.464-27.822 1.247.335-7.928 29.546c-.071.263-.298.453-.569.476z" fill="#fff"/></svg>